<?xml version="1.0" encoding="UTF-8" standalone="no"?>
<svg width="458px" height="179px" viewBox="0 0 458 179" version="1.1" xmlns="http://www.w3.org/2000/svg" xmlns:xlink="http://www.w3.org/1999/xlink">
    <!-- Generator: Sketch 43.1 (39012) - http://www.bohemiancoding.com/sketch -->
    <title>Group 2</title>
    <desc>Created with Sketch.</desc>
    <defs>
        <radialGradient cx="45.6038147%" cy="25.7523148%" fx="45.6038147%" fy="25.7523148%" r="74.3777198%" gradientTransform="translate(0.456038,0.257523),scale(0.457627,1.000000),rotate(82.627786),scale(1.000000,1.744599),translate(-0.456038,-0.257523)" id="radialGradient-1">
            <stop stop-color="#FBC201" offset="0%"></stop>
            <stop stop-color="#D78317" offset="100%"></stop>
        </radialGradient>
        <radialGradient cx="35.7005226%" cy="-48.852323%" fx="35.7005226%" fy="-48.852323%" r="141.848501%" gradientTransform="translate(0.357005,-0.488523),scale(0.856591,1.000000),rotate(74.950008),translate(-0.357005,0.488523)" id="radialGradient-2">
            <stop stop-color="#F1E3CC" offset="0%"></stop>
            <stop stop-color="#E2C698" offset="38.6171632%"></stop>
            <stop stop-color="#C4957F" offset="100%"></stop>
        </radialGradient>
        <radialGradient cx="36.668276%" cy="14.6023337%" fx="36.668276%" fy="14.6023337%" r="140.413399%" gradientTransform="translate(0.366683,0.146023),scale(0.896550,1.000000),rotate(74.824227),translate(-0.366683,-0.146023)" id="radialGradient-3">
            <stop stop-color="#F1E3CC" offset="0%"></stop>
            <stop stop-color="#F1E2CA" offset="1.52668275%"></stop>
            <stop stop-color="#E2C698" offset="38.6171632%"></stop>
            <stop stop-color="#C4957F" offset="100%"></stop>
        </radialGradient>
    </defs>
    <g id="Page-1" stroke="none" stroke-width="1" fill="none" fill-rule="evenodd">
        <g id="Group-2" transform="translate(0.000000, -10.000000)">
            <g id="Group" transform="translate(0.000000, 87.000000)">
                <path d="M5.10117829,25.7326822 C-4.89582643,43.5534297 2.97754011,62.4017923 22.6709629,67.835522 C22.6709629,67.835522 51.578248,75.7764206 52,76 C52.421752,76.2235794 90.7191447,94.8284205 90.7191447,94.8284205 C109.099654,103.759737 138.956103,103.896292 157.459346,95.215318 C157.459346,95.215318 186.273633,81.2129352 190,81 C193.726367,80.7870648 269.283328,71.4952072 269.283328,71.4952072 C289.561386,69.0125728 321.62417,72.4895732 340.911646,79.2662539 L382.088354,93.7337461 C401.369524,100.508211 425.707322,91.9099691 436.448987,74.5280032 L452.551013,48.4719968 C463.292392,31.0904929 455.485722,15.6149315 435.119743,13.9068172 L353.880257,7.09318281 C333.511853,5.38486511 300.507828,5.47860856 280.152566,7.30356309 L208.847434,13.6964369 C188.497158,15.5209444 155.443327,17 134.99894,17 L10,17 L5.10117829,25.7326822 Z" id="Path-2" fill="#F4F5ED"></path>
                <ellipse id="Oval" fill="url(#radialGradient-1)" cx="223" cy="27" rx="59" ry="27"></ellipse>
            </g>
            <path d="M76.8782652,52.8817475 C74.660024,100.787255 95.7333153,143.345114 142.686087,143.345114 C155.970995,143.345114 166.002637,138.632215 166.002637,138.632215 L200.331131,97.7211087 C200.331131,97.7211087 209.918753,71.3444506 208.493909,52.8817475 L181.720098,30.3451139 L158.720098,75.3451139 L136.720098,44.3451139 L118.720098,61.3451139 L101.720098,39.3451139 L76.8782652,52.8817475 Z" id="small-egg-copy-2" fill="url(#radialGradient-2)" transform="translate(142.679213, 86.845114) rotate(50.000000) translate(-142.679213, -86.845114) "></path>
            <path d="M378.807232,125.027879 C376.896598,100.270465 373.284509,91.8905919 373.284509,91.8905919 L339.874954,34.0235442 C339.874954,34.0235442 321.918875,27.4912455 312.99941,27.4912455 C276.654753,27.4912455 249.409829,77.1223719 247.191588,125.027879 L273.191588,110.491246 L289.191588,133.491246 L307.191588,116.491246 L330.191588,145.491246 L353.191588,103.491246 L378.807232,125.027879 Z" id="small-egg-copy-3" fill="url(#radialGradient-3)" transform="translate(312.999410, 86.491246) rotate(120.000000) translate(-312.999410, -86.491246) "></path>
        </g>
    </g>
</svg>