<?xml version="1.0" encoding="UTF-8" standalone="no"?>
<svg width="410px" height="219px" viewBox="0 0 410 219" version="1.1" xmlns="http://www.w3.org/2000/svg" xmlns:xlink="http://www.w3.org/1999/xlink">
    <!-- Generator: Sketch 43.1 (39012) - http://www.bohemiancoding.com/sketch -->
    <title>broken_egg</title>
    <desc>Created with Sketch.</desc>
    <defs>
        <radialGradient cx="14.2360462%" cy="28.2048484%" fx="14.2360462%" fy="28.2048484%" r="90.1422135%" gradientTransform="translate(0.142360,0.282048),scale(1.000000,0.703005),rotate(51.474419),translate(-0.142360,-0.282048)" id="radialGradient-1">
            <stop stop-color="#F1E3CC" offset="0%"></stop>
            <stop stop-color="#ECD8B9" offset="14.5812286%"></stop>
            <stop stop-color="#E2C698" offset="49.5818337%"></stop>
            <stop stop-color="#C4957F" offset="100%"></stop>
        </radialGradient>
        <radialGradient cx="17.4633634%" cy="79.864493%" fx="17.4633634%" fy="79.864493%" r="70.9557212%" gradientTransform="translate(0.174634,0.798645),scale(1.000000,0.703005),rotate(-53.521497),translate(-0.174634,-0.798645)" id="radialGradient-2">
            <stop stop-color="#F1E3CC" offset="0%"></stop>
            <stop stop-color="#ECD8B9" offset="14.5812286%"></stop>
            <stop stop-color="#E2C698" offset="49.5818337%"></stop>
            <stop stop-color="#C4957F" offset="100%"></stop>
        </radialGradient>
        <radialGradient cx="45.6038147%" cy="25.7523148%" fx="45.6038147%" fy="25.7523148%" r="74.3777198%" gradientTransform="translate(0.456038,0.257523),scale(0.457627,1.000000),rotate(82.627786),scale(1.000000,1.744599),translate(-0.456038,-0.257523)" id="radialGradient-3">
            <stop stop-color="#FBC201" offset="0%"></stop>
            <stop stop-color="#D78317" offset="100%"></stop>
        </radialGradient>
        <radialGradient cx="35.7005226%" cy="-48.852323%" fx="35.7005226%" fy="-48.852323%" r="141.848501%" gradientTransform="translate(0.357005,-0.488523),scale(0.856591,1.000000),rotate(74.950008),translate(-0.357005,0.488523)" id="radialGradient-4">
            <stop stop-color="#F1E3CC" offset="0%"></stop>
            <stop stop-color="#E2C698" offset="38.6171632%"></stop>
            <stop stop-color="#C4957F" offset="100%"></stop>
        </radialGradient>
        <radialGradient cx="36.668276%" cy="14.6023337%" fx="36.668276%" fy="14.6023337%" r="104.244419%" gradientTransform="translate(0.366683,0.146023),scale(0.896550,1.000000),rotate(81.815456),translate(-0.366683,-0.146023)" id="radialGradient-5">
            <stop stop-color="#F1E3CC" offset="0%"></stop>
            <stop stop-color="#F1E2CA" offset="1.52668275%"></stop>
            <stop stop-color="#E2C698" offset="38.6171632%"></stop>
            <stop stop-color="#C4957F" offset="100%"></stop>
        </radialGradient>
    </defs>
    <g id="Page-1" stroke="none" stroke-width="1" fill="none" fill-rule="evenodd">
        <g id="broken_egg" transform="translate(-4.000000, -34.000000)">
            <g id="Group-5" transform="translate(154.000000, 0.000000)">
                <path d="M125.247658,215.531868 C176.996866,215.531868 201.852784,168.626533 197.778044,115.827263 C193.703303,63.0279933 165.305084,8.32682479 125.247658,8.32682479 C85.1902316,8.32682479 55.1621161,63.0279933 52.7172717,115.827263 C50.2724272,168.626533 73.4984497,215.531868 125.247658,215.531868 Z" id="small-egg-copy-8" fill="url(#radialGradient-1)" transform="translate(125.376067, 111.929346) scale(-1, 1) rotate(63.000000) translate(-125.376067, -111.929346) "></path>
                <polyline id="Line" stroke="#979797" stroke-linecap="square" points="94.5 35.5 99 58 124 77 124 121"></polyline>
                <polyline id="Line" stroke="#979797" stroke-linecap="square" points="145.5 43.5 150 72 131.620188 85.4864321 137.208485 108 105.5 140 105.5 164.5"></polyline>
            </g>
            <g id="Group-4" transform="translate(0.000000, 32.000000)">
                <path d="M108.302323,183.485171 C160.051531,183.485171 184.90745,136.579836 180.832709,83.7805662 C176.757968,30.9812965 148.359749,-23.719872 108.302323,-23.719872 C68.2448967,-23.719872 38.2167813,30.9812965 35.7719368,83.7805662 C33.3270924,136.579836 56.5531148,183.485171 108.302323,183.485171 Z" id="small-egg-copy-7" fill="url(#radialGradient-2)" transform="translate(108.430733, 79.882650) rotate(86.000000) translate(-108.430733, -79.882650) "></path>
                <polyline id="Line" stroke="#7C7612" stroke-linecap="square" points="89.5 8.5 80 62 105 76.5 80 112 165 120 139.5 144.5"></polyline>
            </g>
            <g id="Group-2" transform="translate(15.000000, 65.000000)">
                <g id="Group" transform="translate(0.000000, 87.000000)">
                    <path d="M4.0214659,24.7841268 C-4.9763671,43.128747 3.5297094,62.9789038 23.0205483,69.1319395 C23.0205483,69.1319395 44.1934274,75.7764206 44.5621862,76 C44.9309451,76.2235794 75.1657437,93.021726 75.1657437,93.021726 C93.0319507,102.950853 122.071315,103.09738 140.091781,93.4525277 C140.091781,93.4525277 161.964313,81.2129352 165.222461,81 C168.480609,80.7870648 230.003323,72.1292112 230.003323,72.1292112 C250.241089,69.2964261 282.025349,73.1796659 300.983739,80.7979619 L329.363171,92.2020381 C348.326806,99.822442 371.573539,91.4279965 381.290867,73.4438865 L394.198113,49.5561135 C403.913352,31.5758685 395.30667,15.4189415 374.957894,13.4670093 L313.096104,7.53299066 C292.754785,5.5817738 259.78804,5.68952361 239.466944,7.77323351 L186.282109,13.2267665 C165.959165,15.3106658 132.923724,17 112.476817,17 L7.83949388,17 L4.0214659,24.7841268 Z" id="Path-2" fill="#F4F5ED"></path>
                    <ellipse id="Oval" fill="url(#radialGradient-3)" cx="222" cy="27" rx="59" ry="27"></ellipse>
                </g>
                <path d="M75.8782652,52.8817475 C73.660024,100.787255 94.7333153,143.345114 141.686087,143.345114 C154.970995,143.345114 165.002637,138.632215 165.002637,138.632215 L199.331131,97.7211087 C199.331131,97.7211087 208.918753,71.3444506 207.493909,52.8817475 L180.720098,30.3451139 L157.720098,75.3451139 L135.720098,44.3451139 L117.720098,61.3451139 L100.720098,39.3451139 L75.8782652,52.8817475 Z" id="small-egg-copy-2" fill="url(#radialGradient-4)" transform="translate(141.679213, 86.845114) rotate(50.000000) translate(-141.679213, -86.845114) "></path>
                <path d="M377.807232,125.027879 C375.896598,100.270465 372.284509,91.8905919 372.284509,91.8905919 L338.874954,34.0235442 C338.874954,34.0235442 320.918875,27.4912455 311.99941,27.4912455 C275.654753,27.4912455 248.409829,77.1223719 246.191588,125.027879 L272.191588,110.491246 L288.191588,133.491246 L306.191588,116.491246 L329.191588,145.491246 L352.191588,103.491246 L377.807232,125.027879 Z" id="small-egg-copy-3" fill="url(#radialGradient-5)" transform="translate(311.999410, 86.491246) rotate(120.000000) translate(-311.999410, -86.491246) "></path>
            </g>
        </g>
    </g>
</svg>