<?xml version="1.0" encoding="UTF-8" standalone="no"?>
<svg width="846px" height="653px" viewBox="0 0 846 653" version="1.1" xmlns="http://www.w3.org/2000/svg" xmlns:xlink="http://www.w3.org/1999/xlink">
    <!-- Generator: Sketch 43 (38999) - http://www.bohemiancoding.com/sketch -->
    <title>leavethegun</title>
    <desc>Created with Sketch.</desc>
    <defs>
        <rect id="path-1" x="0" y="0" width="846" height="653"></rect>
        <radialGradient cx="15.7539515%" cy="22.0117947%" fx="15.7539515%" fy="22.0117947%" r="120.979565%" gradientTransform="translate(0.157540,0.220118),scale(0.280484,1.000000),rotate(13.306658),translate(-0.157540,-0.220118)" id="radialGradient-3">
            <stop stop-color="#201615" offset="0%"></stop>
            <stop stop-color="#7D7168" offset="23.4680076%"></stop>
            <stop stop-color="#7D7168" offset="80.0161917%"></stop>
            <stop stop-color="#201615" offset="100%"></stop>
        </radialGradient>
        <filter x="-1.9%" y="-6.9%" width="103.9%" height="113.8%" filterUnits="objectBoundingBox" id="filter-4">
            <feGaussianBlur stdDeviation="5.61810662" in="SourceGraphic"></feGaussianBlur>
        </filter>
        <linearGradient x1="50%" y1="0%" x2="50%" y2="100%" id="linearGradient-5">
            <stop stop-color="#417086" offset="0%"></stop>
            <stop stop-color="#6F7374" offset="100%"></stop>
        </linearGradient>
        <filter x="-3.2%" y="-11.5%" width="106.4%" height="123.0%" filterUnits="objectBoundingBox" id="filter-6">
            <feGaussianBlur stdDeviation="9.32617188" in="SourceGraphic"></feGaussianBlur>
        </filter>
        <linearGradient x1="50%" y1="100%" x2="50%" y2="0%" id="linearGradient-7">
            <stop stop-color="#492B19" offset="0%"></stop>
            <stop stop-color="#765036" offset="20.5636161%"></stop>
            <stop stop-color="#8F684F" offset="40.8133371%"></stop>
            <stop stop-color="#6A4D3A" offset="68.3314732%"></stop>
            <stop stop-color="#554338" offset="100%"></stop>
        </linearGradient>
        <filter x="-2.2%" y="-7.8%" width="104.4%" height="115.6%" filterUnits="objectBoundingBox" id="filter-8">
            <feGaussianBlur stdDeviation="6.32180607" in="SourceGraphic"></feGaussianBlur>
        </filter>
        <radialGradient cx="36.668276%" cy="14.6023337%" fx="36.668276%" fy="14.6023337%" r="68.1309582%" gradientTransform="translate(0.366683,0.146023),scale(1.000000,0.703185),rotate(62.602631),translate(-0.366683,-0.146023)" id="radialGradient-9">
            <stop stop-color="#F1E3CC" offset="0%"></stop>
            <stop stop-color="#E2C698" offset="38.6171632%"></stop>
            <stop stop-color="#C4957F" offset="100%"></stop>
        </radialGradient>
        <linearGradient x1="50%" y1="0%" x2="50%" y2="100%" id="linearGradient-10">
            <stop stop-color="#4C3107" offset="0%"></stop>
            <stop stop-color="#9E672F" offset="100%"></stop>
        </linearGradient>
        <radialGradient cx="36.668276%" cy="14.6023337%" fx="36.668276%" fy="14.6023337%" r="68.1309582%" gradientTransform="translate(0.366683,0.146023),scale(1.000000,0.602743),rotate(66.046316),translate(-0.366683,-0.146023)" id="radialGradient-11">
            <stop stop-color="#F1E3CC" offset="0%"></stop>
            <stop stop-color="#E2C698" offset="38.6171632%"></stop>
            <stop stop-color="#C4957F" offset="100%"></stop>
        </radialGradient>
        <linearGradient x1="87.4316406%" y1="81.5917969%" x2="50%" y2="0%" id="linearGradient-12">
            <stop stop-color="#2B2525" offset="0%"></stop>
            <stop stop-color="#000000" offset="100%"></stop>
        </linearGradient>
        <radialGradient cx="50%" cy="50%" fx="50%" fy="50%" r="51.7530755%" gradientTransform="translate(0.500000,0.500000),scale(0.677568,1.000000),rotate(68.484091),translate(-0.500000,-0.500000)" id="radialGradient-13">
            <stop stop-color="#4D4B4B" offset="0%"></stop>
            <stop stop-color="#564B4B" offset="6.35279605%"></stop>
            <stop stop-color="#2D2626" offset="100%"></stop>
        </radialGradient>
        <linearGradient x1="100%" y1="41.7872299%" x2="0%" y2="41.787231%" id="linearGradient-14">
            <stop stop-color="#070707" offset="0%"></stop>
            <stop stop-color="#443F3F" offset="26.8037684%"></stop>
            <stop stop-color="#151111" offset="42.9457721%"></stop>
            <stop stop-color="#494040" offset="73.3302696%"></stop>
            <stop stop-color="#1D1C1C" offset="100%"></stop>
        </linearGradient>
        <linearGradient x1="29.8739743%" y1="7.25527172%" x2="24.6247841%" y2="50%" id="linearGradient-15">
            <stop stop-color="#2D2525" offset="0%"></stop>
            <stop stop-color="#493E3E" offset="59.6688715%"></stop>
            <stop stop-color="#191414" offset="100%"></stop>
        </linearGradient>
        <linearGradient x1="38.8167137%" y1="61.2096595%" x2="67.5388739%" y2="16.3078291%" id="linearGradient-16">
            <stop stop-color="#252222" offset="0%"></stop>
            <stop stop-color="#6B6666" offset="100%"></stop>
        </linearGradient>
        <path d="M35.2044221,24.5414724 C36.4070717,18.3047194 42.521207,12.9282904 48.8550556,12.5341219 C48.8550556,12.5341219 132.780377,7.28685765 136.435543,7.28685765 C140.090708,7.28685765 162.053658,11.2594374 162.053658,11.2594374 C168.30392,12.3581498 174.73814,18.2125554 176.425063,24.3362374 L181.765125,43.7211459 L181.765125,43.7211459 C177.129044,43.7211459 168.226484,43.7211459 161.864381,43.7211459 L48.888389,43.7211459 C42.5335924,43.7211459 32.2264749,43.7211459 31.5059549,43.7211459 L31.5059549,43.7211459 L35.2044221,24.5414724 Z" id="path-17"></path>
        <radialGradient cx="36.668276%" cy="14.6023337%" fx="36.668276%" fy="14.6023337%" r="68.1309582%" gradientTransform="translate(0.366683,0.146023),scale(1.000000,0.957600),rotate(54.785078),translate(-0.366683,-0.146023)" id="radialGradient-18">
            <stop stop-color="#F1E3CC" offset="0%"></stop>
            <stop stop-color="#E2C698" offset="38.6171632%"></stop>
            <stop stop-color="#C4957F" offset="100%"></stop>
        </radialGradient>
        <path d="M25.6373007,9.43557306 L52.6321241,9.43557306 L41.3868101,63.0490226 C40.8206849,65.7480953 38.1177927,67.9361261 35.3659453,67.9361261 L17.1546645,67.9361261 C12.7393006,67.9361261 10.1291589,64.495054 11.3310119,60.2280436 L25.6373007,9.43557306 Z" id="path-19"></path>
        <radialGradient cx="50%" cy="50%" fx="50%" fy="50%" r="70.9134615%" gradientTransform="translate(0.500000,0.500000),scale(0.897134,1.000000),rotate(90.000000),translate(-0.500000,-0.500000)" id="radialGradient-20">
            <stop stop-color="#C9BFBC" offset="0%"></stop>
            <stop stop-color="#0D0D0D" offset="100%"></stop>
        </radialGradient>
        <ellipse id="path-21" cx="53.6390646" cy="21.0727798" rx="4.55756758" ry="4.08874833"></ellipse>
        <filter x="-98.7%" y="-110.1%" width="297.5%" height="320.1%" filterUnits="objectBoundingBox" id="filter-22">
            <feMorphology radius="1" operator="dilate" in="SourceAlpha" result="shadowSpreadOuter1"></feMorphology>
            <feOffset dx="0" dy="0" in="shadowSpreadOuter1" result="shadowOffsetOuter1"></feOffset>
            <feGaussianBlur stdDeviation="2" in="shadowOffsetOuter1" result="shadowBlurOuter1"></feGaussianBlur>
            <feColorMatrix values="0 0 0 0 0   0 0 0 0 0   0 0 0 0 0  0 0 0 0.5 0" type="matrix" in="shadowBlurOuter1"></feColorMatrix>
        </filter>
        <linearGradient x1="50%" y1="0%" x2="50%" y2="100%" id="linearGradient-23">
            <stop stop-color="#605654" offset="0%"></stop>
            <stop stop-color="#CBC3C0" offset="57.9223633%"></stop>
            <stop stop-color="#44403D" offset="100%"></stop>
        </linearGradient>
        <linearGradient x1="62.2359922%" y1="18.4372754%" x2="33.2198706%" y2="60.2666667%" id="linearGradient-24">
            <stop stop-color="#DDAF74" offset="0%"></stop>
            <stop stop-color="#B08048" offset="29.0510482%"></stop>
            <stop stop-color="#BA8346" offset="54.7447592%"></stop>
            <stop stop-color="#8B572A" offset="100%"></stop>
        </linearGradient>
        <path d="M14.2435278,40.9915943 C16.503396,40.9915943 17.6919016,44.2408997 19.3870239,45.7213936 C20.4749166,46.6715426 25.0089922,51.874251 32.9584268,58.9984634 C37.3955662,62.9749881 42.8967753,69.1782707 49.4566937,71.6506265 C60.1393395,75.6767895 77.1524421,95.7784367 83.8785525,97.7491864 C90.6046628,99.7199361 109.693373,104.456972 113.156915,102.084836 C134.83847,87.2354144 105.002986,99.3228475 101.287309,96.1725866 C83.8476295,81.3867117 83.8785525,82.3457606 83.8785525,78.0416892 C83.8785525,68.2106422 78.8461759,59.3729248 80.7133241,50.451193 C82.5804723,41.5294611 90.8711582,23.2401089 80.7133241,17.3425976 C64.9267323,8.17710016 56.024338,6.70054907 51.4349614,6.70054907 C45.5807722,6.70054907 36.7489173,3.65905095 28.8827091,6.70054907 C26.8966899,7.46845065 20.7496834,6.16167415 14.2435278,11.0361985 C14.2435278,11.0361985 0.395653549,21.1655441 0.395653549,26.4080463 C0.395653549,31.6505485 14.2435278,40.9915943 14.2435278,40.9915943 Z" id="path-25"></path>
        <filter x="-7.9%" y="-5.6%" width="112.4%" height="115.4%" filterUnits="objectBoundingBox" id="filter-26">
            <feMorphology radius="0.5" operator="dilate" in="SourceAlpha" result="shadowSpreadOuter1"></feMorphology>
            <feOffset dx="-2" dy="2" in="shadowSpreadOuter1" result="shadowOffsetOuter1"></feOffset>
            <feGaussianBlur stdDeviation="2" in="shadowOffsetOuter1" result="shadowBlurOuter1"></feGaussianBlur>
            <feComposite in="shadowBlurOuter1" in2="SourceAlpha" operator="out" result="shadowBlurOuter1"></feComposite>
            <feColorMatrix values="0 0 0 0 0   0 0 0 0 0   0 0 0 0 0  0 0 0 0.5 0" type="matrix" in="shadowBlurOuter1"></feColorMatrix>
        </filter>
        <linearGradient x1="38.7293782%" y1="28.177244%" x2="4.37618972%" y2="63.6434474%" id="linearGradient-27">
            <stop stop-color="#A16C37" offset="0%"></stop>
            <stop stop-color="#C8995F" offset="100%"></stop>
        </linearGradient>
        <path d="M53.3745377,0.0705208277 C49.7171482,7.11839529 47.4784259,14.5214007 47.4784259,20.0161738 C47.4784259,34.383252 62.7835765,30.2640723 78.7350563,30.2640723 C84.9476572,30.2640723 94.5611983,29.8699224 98.9133873,28.2933226 C102.392993,27.0328199 117.000477,40.9531122 122.718001,42.1028835 C124.151788,42.3912124 125.422175,45.4238047 125.422175,43.6651705 C125.422175,43.6651705 115.770909,34.7975393 103.265576,26.3225729 C90.7602441,17.8476065 82.2040135,14.261299 74.7785208,9.76827519 C69.9973796,6.87529796 64.5248271,5.17240346 59.7436859,2.27942623 C54.9625448,-0.613551003 53.3745377,0.0705208277 53.3745377,0.0705208277 Z" id="path-28"></path>
        <filter x="-8.3%" y="-10.2%" width="116.7%" height="129.4%" filterUnits="objectBoundingBox" id="filter-29">
            <feMorphology radius="1.5" operator="dilate" in="SourceAlpha" result="shadowSpreadOuter1"></feMorphology>
            <feOffset dx="0" dy="2" in="shadowSpreadOuter1" result="shadowOffsetOuter1"></feOffset>
            <feGaussianBlur stdDeviation="1" in="shadowOffsetOuter1" result="shadowBlurOuter1"></feGaussianBlur>
            <feComposite in="shadowBlurOuter1" in2="SourceAlpha" operator="out" result="shadowBlurOuter1"></feComposite>
            <feColorMatrix values="0 0 0 0 0.564705882   0 0 0 0 0.360784314   0 0 0 0 0.176470588  0 0 0 1 0" type="matrix" in="shadowBlurOuter1"></feColorMatrix>
        </filter>
        <radialGradient cx="50%" cy="50.8868782%" fx="50%" fy="50.8868782%" r="49.1131218%" gradientTransform="translate(0.500000,0.508869),scale(1.000000,0.856306),rotate(90.000000),scale(1.000000,0.763246),translate(-0.500000,-0.508869)" id="radialGradient-30">
            <stop stop-color="#DAC994" offset="0%"></stop>
            <stop stop-color="#DFD8BF" offset="100%"></stop>
        </radialGradient>
        <path d="M31.1930326,58.4106805 C40.4714487,58.4106805 48.1547114,53.0341768 48.1547114,41.6230046 C48.1547114,35.0698604 44.77449,24.4369479 38.0746763,20.5307963 C31.3748627,16.6246448 25.2246771,20.5307963 21.2746179,20.5307963 C11.9962019,20.5307963 14.5545946,30.2118324 14.5545946,41.6230046 C14.5545946,53.0341768 21.9146166,58.4106805 31.1930326,58.4106805 Z" id="path-31"></path>
        <filter x="-42.7%" y="-31.6%" width="185.5%" height="173.2%" filterUnits="objectBoundingBox" id="filter-32">
            <feMorphology radius="2.5" operator="dilate" in="SourceAlpha" result="shadowSpreadOuter1"></feMorphology>
            <feOffset dx="0" dy="2" in="shadowSpreadOuter1" result="shadowOffsetOuter1"></feOffset>
            <feGaussianBlur stdDeviation="2" in="shadowOffsetOuter1" result="shadowBlurOuter1"></feGaussianBlur>
            <feColorMatrix values="0 0 0 0 0.858823529   0 0 0 0 0.792156863   0 0 0 0 0.619607843  0 0 0 1 0" type="matrix" in="shadowBlurOuter1"></feColorMatrix>
        </filter>
        <filter x="-38.3%" y="-27.8%" width="176.6%" height="165.6%" filterUnits="objectBoundingBox" id="filter-33">
            <feMorphology radius="4" operator="erode" in="SourceAlpha" result="shadowSpreadInner1"></feMorphology>
            <feGaussianBlur stdDeviation="1.5" in="shadowSpreadInner1" result="shadowBlurInner1"></feGaussianBlur>
            <feOffset dx="0" dy="1" in="shadowBlurInner1" result="shadowOffsetInner1"></feOffset>
            <feComposite in="shadowOffsetInner1" in2="SourceAlpha" operator="arithmetic" k2="-1" k3="1" result="shadowInnerInner1"></feComposite>
            <feColorMatrix values="0 0 0 0 0.874509804   0 0 0 0 0.764705882   0 0 0 0 0.545098039  0 0 0 1 0" type="matrix" in="shadowInnerInner1"></feColorMatrix>
        </filter>
    </defs>
    <g id="Page-1" stroke="none" stroke-width="1" fill="none" fill-rule="evenodd">
        <g id="leavethegun">
            <mask id="mask-2" fill="white">
                <use xlink:href="#path-1"></use>
            </mask>
            <g id="Mask"></g>
            <g mask="url(#mask-2)">
                <g transform="translate(-8.000000, 0.000000)">
                    <g id="background">
                        <rect id="road" fill="url(#radialGradient-3)" filter="url(#filter-4)" x="0" y="421" width="868" height="243.45977"></rect>
                        <rect id="sky" fill="url(#linearGradient-5)" filter="url(#filter-6)" x="0" y="0" width="868" height="243.45977"></rect>
                        <g id="Group" transform="translate(156.567686, 183.057471)">
                            <ellipse id="Oval-13" fill="#5F8C65" cx="5.93278906" cy="41.2643678" rx="5.93278906" ry="41.2643678"></ellipse>
                            <ellipse id="Oval-13-Copy" fill="#AACBAE" cx="9.22878299" cy="41.2643678" rx="5.93278906" ry="41.2643678"></ellipse>
                        </g>
                        <rect id="wheat" fill="url(#linearGradient-7)" filter="url(#filter-8)" x="0" y="227.448276" width="868" height="243.45977"></rect>
                    </g>
                    <g id="gangsters" transform="translate(114.000000, 81.000000)">
                        <g id="eggs" transform="translate(0.000000, 239.539033)">
                            <g id="clemenza" transform="translate(417.534227, 13.072032)">
                                <g id="legs" transform="translate(0.000000, 19.518079)">
                                    <polyline id="Line" stroke="#000000" stroke-width="2" stroke-linecap="square" points="32.1118387 131.137095 44.2295137 128.087395 44.2295137 110.399136"></polyline>
                                    <polyline id="Line-Copy" stroke="#000000" stroke-width="2" stroke-linecap="square" points="24.23535 127.477455 35.1412574 127.477455 35.1412574 114.058775"></polyline>
                                    <path d="M39.8150077,113.441879 C68.1542321,113.441879 81.7659855,87.7618602 79.5345505,58.8549945 C77.3031155,29.9481288 61.7515055,0 39.8150077,0 C17.87851,0 1.43432592,29.9481288 0.0954649291,58.8549945 C-1.24339606,87.7618602 11.4757834,113.441879 39.8150077,113.441879 Z" id="small-egg-copy" fill="url(#radialGradient-9)"></path>
                                </g>
                                <g id="Hat" transform="translate(44.515583, 19.424761) rotate(4.000000) translate(-44.515583, -19.424761) translate(12.015583, 2.424761)">
                                    <path d="M-5.41788836e-13,26.1995172 L64.6121076,26.1995172 L64.6121076,33.1860551 L32.3060538,33.1860551 L-5.41788836e-13,33.1860551 L-5.41788836e-13,26.1995172 Z" id="Rectangle-14" fill="#6E4406"></path>
                                    <path d="M15.3028676,4.3665862 C15.3028676,4.3665862 31.5754482,0.873317241 36.5568504,0.873317241 C41.5382526,0.873317241 52.7098773,4.3665862 52.7098773,4.3665862 L52.7098773,26.1995172 L11.9022304,26.1995172 L15.3028676,4.3665862 Z" id="Rectangle-15" fill="url(#linearGradient-10)"></path>
                                    <path d="M14.5112725,23.2216356 L50.8217441,22.8265917" id="Line" stroke="#61350A" stroke-width="5" stroke-linecap="square"></path>
                                </g>
                                <g id="coat" transform="translate(0.000000, 50.015078)" stroke="#979797">
                                    <polygon id="Path-5" fill="#B6B2A6" points="4.84706999 5.48945978 0 21.3478991 72.7060499 1.21987995"></polygon>
                                    <polygon id="Path-6" fill="#B0ADA4" points="74.5237011 0.609939976 81.7943061 37.2063385 81.1884223 78.6822568 1.81765125 79.9021368 0.605883749 22.5677791"></polygon>
                                    <polyline id="Path-7" fill="#B6B2A6" transform="translate(40.897153, 40.561008) rotate(29.000000) translate(-40.897153, -40.561008) " points="27.8706524 34.1566386 29.0824199 52.4548379 50.2883511 53.0647779 53.9236536 28.0572389"></polyline>
                                </g>
                                <g id="hand" transform="translate(19.388280, 100.030156)" stroke="#000000" stroke-linecap="square">
                                    <path d="M14.1585465,0.372741096 L3.44397078,10.0640096" id="Line"></path>
                                    <polyline id="Line" points="0.38266342 6.33659863 6.50527814 7.08208083 6.50527814 13.0459384"></polyline>
                                </g>
                            </g>
                            <g id="gatto" transform="translate(263.851523, 0.000000)">
                                <path d="M51.2237028,138.636095 C79.1618911,138.636095 92.581021,109.100691 90.3811636,75.8539873 C88.1813063,42.6072839 72.8497712,8.16299085 51.2237028,8.16299085 C29.5976344,8.16299085 13.3861564,42.6072839 12.066242,75.8539873 C10.7463276,109.100691 23.2855145,138.636095 51.2237028,138.636095 Z" id="small-egg" fill="url(#radialGradient-11)"></path>
                                <g id="Gatto-hat" transform="translate(52.790819, 25.374490) rotate(6.000000) translate(-52.790819, -25.374490) translate(24.290819, 3.374490)">
                                    <ellipse id="Oval-11-Copy" fill="url(#linearGradient-12)" cx="28.116078" cy="23.4182494" rx="28.116078" ry="20.0727852"></ellipse>
                                    <path d="M23.8986663,35.1273741 C37.0975353,35.1273741 50.6089405,22.1581889 50.6089405,13.3818568 C50.6089405,4.60552472 37.0975353,0.83636605 23.8986663,0.83636605 C10.6997974,0.83636605 -1.63424829e-13,10.4600871 -1.63424829e-13,19.2364191 C-1.63424829e-13,28.0127512 10.6997974,35.1273741 23.8986663,35.1273741 Z" id="Oval-11" fill="url(#radialGradient-13)"></path>
                                </g>
                                <g id="coat" transform="translate(0.000000, 44.587259)">
                                    <path d="M4.67084027,29.2160877 C5.63406957,17.112492 16.1871022,8.46203297 28.2566128,9.89651934 L65.0885532,14.2740718 C77.1513864,15.7077646 88.9876272,26.5039679 91.4443477,38.3957631 C91.4443477,38.3957631 94.9092408,53.5467447 94.9092408,58.3681409 C94.9092408,63.1895372 90.6861021,86.4043592 90.6861021,86.4043592 C88.6117994,98.364926 77.111838,107.384965 64.9847418,106.550115 L18.9307016,103.379674 C6.81053497,102.545301 -1.1335318,92.2014264 0.972538091,80.2371408 C0.972538091,80.2371408 3.27804986,71.1532905 2.78810482,63.591255 C2.29815978,56.0292196 4.67084027,29.2160877 4.67084027,29.2160877 Z" id="Rectangle-16" fill="url(#linearGradient-14)"></path>
                                    <path d="M10.0120111,7.39811039 C12.1222506,4.8379015 16.4750085,2.23757425 19.7163637,1.59365384 L21.8225708,1.17523944 C25.0718972,0.529735491 30.1583541,1.09544141 33.186536,2.44013151 L34.6381942,3.08475274 C37.6650125,4.42883729 42.0054146,7.43569892 44.3235559,9.79141947 L45.4060041,10.8914151 C47.7282634,13.2513204 51.2795027,17.263873 53.3393794,19.8555397 L54.6442055,21.4972273 C56.7034284,24.0880713 60.8018092,27.3344213 63.7971845,28.7476759 L61.7102643,27.7630414 C64.7060921,29.1765096 69.8111683,30.3223519 73.1363186,30.3223519 L69.8949939,30.3223519 C73.2096017,30.3223519 78.5316175,30.8748954 81.764811,31.5528777 L76.5998824,30.4698215 C79.8407936,31.1494222 85.1538481,31.7003474 88.4735257,31.7003474 L86.6848706,31.7003474 C90.0015915,31.7003474 94.9702565,33.1346133 97.7706105,34.8962683 L94.1814886,32.6384129 C96.9872528,34.4034713 99.261774,38.5158002 99.261774,41.829904 L99.261774,51.8866915 C99.261774,55.1979535 96.5869087,57.6165703 93.2978363,57.2898704 L91.3526529,57.0966575 C88.058861,56.7694888 82.8345554,55.6731739 79.686438,54.6488151 L69.9163235,51.4697398 C66.7670428,50.4450024 61.6067648,48.9319679 58.4088372,48.0950761 L58.2711671,48.059048 C55.0650386,47.22001 49.7867941,46.5398354 46.4731903,46.5398354 L46.1115012,46.5398354 C42.801787,46.5398354 37.6366641,45.529178 34.5658643,44.2787994 L33.2588659,43.7466114 C30.1921009,42.4978757 25.2257718,40.4752467 22.1432289,39.2195615 L19.3957056,38.1003478 C16.3234738,36.8488628 12.6403093,33.4227766 11.173846,30.4575111 L6.26977569,20.5412243 C4.80119985,17.5716871 5.32165937,13.0885924 7.43161062,10.5287333 L10.0120111,7.39811039 Z" id="Path-8" fill="url(#linearGradient-15)" transform="translate(52.348506, 29.113918) scale(-1, -1) translate(-52.348506, -29.113918) "></path>
                                    <polyline id="Path-9" fill="#252121" transform="translate(36.316537, 57.806307) rotate(-18.000000) translate(-36.316537, -57.806307) " points="24.315772 48.9470217 21.57274 74.7194867 51.0603341 70.692539 47.631544 40.8931265"></polyline>
                                </g>
                            </g>
                            <g id="dead-egg-in-car" transform="translate(0.000000, 47.077367)">
                                <g id="car">
                                    <g id="car-body" transform="translate(0.000000, 48.579051)">
                                        <path d="M25.9237933,31.6340935 C35.4088847,14.1630661 59.2108541,0 79.0904626,0 L424.437264,0 C426.647989,0 427.779192,1.66831674 426.96541,3.72242313 L395.722412,82.5843867 L4.26797209,82.5843867 C0.951337044,82.5843867 -0.455803672,80.2238899 1.12696904,77.3085079 L25.9237933,31.6340935 Z" id="Rectangle-2" fill="#000000"></path>
                                        <g id="front-tire" transform="translate(339.981107, 31.576383)">
                                            <ellipse id="Oval-7" stroke="#171414" stroke-width="6" fill="#D8D8D8" cx="42.4118624" cy="40.8671266" rx="32.7177224" ry="32.7908594"></ellipse>
                                            <ellipse id="Oval-8" stroke="#979797" stroke-width="2" fill="#FFFFFF" cx="41.2000949" cy="41.2921933" rx="14.54121" ry="14.5737153"></ellipse>
                                            <path d="M2.78411079,12.2983361 C5.77906126,5.77244562 14.0250182,0.374862613 21.2070742,0.264531199 C21.2070742,0.264531199 48.6918561,-0.35937219 58.2080178,0.482166113 C67.7241796,1.32370442 62.171673,1.03416428 62.171673,1.03416428 C74.1780029,4.42668823 85.6758365,17.1510842 87.8526072,29.4537902 L89.8732668,40.8741847 C91.1237725,47.9418124 87.089841,50.7688062 80.818729,47.2817978 C80.818729,47.2817978 59.3498702,34.3415498 48.5138779,33.02516 C37.6778855,31.7087703 21.1985556,32.5976535 21.1985556,32.5976535 C14.023489,32.8337588 5.24993709,28.0223316 1.8476628,21.6823658 C1.8476628,21.6823658 -0.517347971,18.8366654 0.413878377,17.2189315 C1.34510472,15.6011976 2.78411079,12.2983361 2.78411079,12.2983361 Z" id="Rectangle-13-Copy" fill="url(#linearGradient-16)"></path>
                                        </g>
                                    </g>
                                    <g id="back-tire" transform="translate(29.614592, 71.366893)">
                                        <ellipse id="Oval-7" stroke="#171414" stroke-width="6" fill="#D8D8D8" cx="47.4129688" cy="52.0846203" rx="32.7177224" ry="32.7908594"></ellipse>
                                        <ellipse id="Oval-8" stroke="#979797" stroke-width="2" fill="#FFFFFF" cx="46.2012013" cy="52.509687" rx="14.54121" ry="14.5737153"></ellipse>
                                        <path d="M9.10457801,11.2180155 C12.1007273,4.69361605 20.3326852,-0.0822719527 27.4801076,0.549792727 L61.7335205,3.57890886 C75.8644788,4.82854532 89.0994594,17.2117292 91.291437,31.2168235 L93.8729682,47.7108738 C94.9833258,54.8052263 90.4753771,58.3797929 83.8006684,55.7527471 C83.8006684,55.7527471 57.0409265,44.6566432 46.6220056,43.3909206 C36.2030847,42.1251981 9.23200169,38.6226702 9.23200169,38.6226702 C2.10753395,37.7010284 -1.08955572,31.73228 2.10072084,25.2931185 C2.10072084,25.2931185 6.14108332,17.0525898 7.03646727,15.4971216 C7.93185122,13.9416535 9.10457801,11.2180155 9.10457801,11.2180155 Z" id="Rectangle-13" fill="url(#linearGradient-16)"></path>
                                    </g>
                                    <g id="car-hood" transform="translate(78.239328, 0.000000)">
                                        <path d="M22.6632237,5.31450824 C24.2007258,2.37938639 28.1266165,0 31.441386,0 L165.853804,0 C168.618217,0 172.046785,1.90435637 173.507839,4.24726847 L201.153405,48.579051 L0,48.579051 L22.6632237,5.31450824 Z" id="Rectangle-11" fill="#000000"></path>
                                        <g id="Rectangle-12">
                                            <use fill="#C6EDEA" fill-rule="evenodd" xlink:href="#path-17"></use>
                                            <path stroke="#979797" stroke-width="1" d="M180.961469,43.2211459 C176.548006,43.2211459 176.194575,43.2211459 169.695415,43.2211459 C165.602968,43.2211459 165.602968,43.2211459 161.864381,43.2211459 L48.888389,43.2211459 C45.9373162,43.2211459 45.9373162,43.2211459 42.6494305,43.2211459 C38.661946,43.2211459 38.661946,43.2211459 35.2752693,43.2211459 C33.8072339,43.2211459 33.8072339,43.2211459 32.7147034,43.2211459 C32.2819888,43.2211459 32.0651828,43.2211459 31.91413,43.2211459 L35.6953775,24.6361446 C36.8547274,18.623937 42.7791531,13.4132052 48.8861116,13.0331565 C49.0501513,13.0229003 49.0501513,13.0229003 49.8296242,12.974221 C50.8968427,12.9076069 51.4923696,12.8704565 52.499465,12.8076851 C55.3768889,12.6283378 58.5892839,12.4284935 62.0564757,12.2132764 C71.9627289,11.598371 81.9260889,10.9834659 91.3051503,10.4095563 C92.0211054,10.3657536 92.0211054,10.3657536 92.7372865,10.3219654 C118.665883,8.73691947 134.88411,7.78685765 136.435543,7.78685765 C137.867308,7.78685765 142.368524,8.42150378 148.907112,9.49683477 C149.438992,9.58430719 149.981247,9.67419733 150.532937,9.76631929 C153.133442,10.2005556 155.834334,10.6658524 158.47817,11.1311537 C159.403525,11.2940114 160.255631,11.4452334 161.014817,11.5809391 C161.470235,11.6623457 161.793406,11.7204773 161.964664,11.7514537 C168.027174,12.817168 174.307405,18.5316003 175.943019,24.4690286 L181.108762,43.2211459 L180.961469,43.2211459 Z"></path>
                                        </g>
                                        <path d="M105.423772,10.9302865 L105.423772,42.5066696" id="Line" stroke="#979797" stroke-linecap="square"></path>
                                    </g>
                                </g>
                                <path d="M253.945615,25.5040018 L244.251475,40.0777171" id="Line" stroke="#3B0311" stroke-width="3" stroke-linecap="square"></path>
                                <g id="egg" transform="translate(160.402744, 36.434288)">
                                    <path d="M0.984224854,2.1852748 L1.98583031,14.8173156 C2.11696096,16.4711082 3.10932436,18.8095236 4.21056364,20.0495774 L5.19211704,21.1548585 C6.28967269,22.3907643 8.51176806,23.2212013 10.1613937,23.0089081 L21.5439799,21.5440629 C23.19088,21.3321204 25.6973427,20.510932 27.1497536,19.7057669 L38.0096594,13.6854203 C39.4587426,12.8821 40.6334567,13.564859 40.6334567,15.2312858 L40.6334567,19.2760798 C40.6334567,20.9331581 41.9564532,22.5413324 43.5779284,22.865931 L48.8403315,23.9193967 C50.4665183,24.2449385 52.1903861,25.7876241 52.6938382,27.3749827 L55.8319221,37.269199 C56.3339683,38.8521246 57.3217564,41.3561595 58.0305918,42.846107 L59.168438,45.2378205 C59.8806835,46.7349361 61.6015213,47.2275412 62.9953509,46.3486066 L71.9968163,40.6723756 C72.4671648,40.3757787 73.003445,39.7164818 73.1981548,39.1902733 L76.2158759,31.0348002 C76.4090083,30.5128546 76.8953733,29.7926361 77.3106072,29.4185758 L85.7328469,21.8314654 C86.1443179,21.4607949 86.8730911,20.956866 87.3734057,20.6993205 L94.2556259,17.1565802 C94.7502105,16.9019844 95.2012569,16.2442142 95.2611069,15.7050598 L96.390189,5.53380992 L0.984224854,2.1852748 Z" id="Path-4" fill="#F6F4DB" transform="translate(48.687207, 24.484623) rotate(-2.000000) translate(-48.687207, -24.484623) "></path>
                                    <path d="M63.1332771,19.0846272 C73.5198557,15.614695 82.1753378,11.6703662 82.1753378,7.51818646 C82.1753378,3.36600673 73.6499168,2.31328814 63.1332771,2.31328814 C52.6166374,2.31328814 44.0912164,3.36600673 44.0912164,7.51818646 C44.0912164,9.66930504 49.0633227,11.0469008 52.7466986,13.8797289 C56.4300745,16.7125569 58.1276704,20.7568926 63.1332771,19.0846272 Z" id="Oval-9" fill="#E5D26B"></path>
                                    <ellipse id="Oval-10" fill="#E5D26B" cx="66.59547" cy="35.8559662" rx="2.88516071" ry="4.62657628"></ellipse>
                                </g>
                                <g id="dead-egg" transform="translate(196.069561, 3.930636)">
                                    <path d="M50.426318,25.7446534 C46.5886046,15.661665 39.8489456,7.87458562 31.4417083,7.87458562 C19.1047996,7.87458562 9.85672369,24.6425635 9.10375911,40.8275374 C8.93862575,44.377079 9.15375567,47.8397226 9.75841508,51.0828603 L50.426318,25.7446534 Z" id="small-egg" fill="url(#radialGradient-18)" transform="translate(29.738194, 29.478723) rotate(31.000000) translate(-29.738194, -29.478723) "></path>
                                    <polyline id="Line" stroke="#000000" stroke-width="0.5" stroke-linecap="square" points="49.3936817 28.8602234 42.1230767 25.2167945 33.6407042 31.2891759 36.7220559 23.6206257 23.2195037 31.2891759 23.2195037 15.5009843 8.19358677 26.4312708"></polyline>
                                </g>
                            </g>
                        </g>
                        <g id="LTG-TTC" transform="translate(131.557098, 0.000000)">
                            <path d="M197.212732,208.342723 C207.927948,234.7513 231.125831,262.529546 263.238855,284.218112 C269.573983,288.496745 275.998593,292.364487 282.449395,295.817363 L282.449395,295.817363 C258.200164,273.705559 246.004484,242.239964 247.772307,210.988604 C249.998268,211.012455 252.231342,211.024453 254.471174,211.024453 C395.011723,211.024453 508.942349,163.78502 508.942349,105.512227 C508.942349,47.239433 395.011723,0 254.471174,0 C113.930626,0 0,47.239433 0,105.512227 C0,155.621548 84.2453308,197.572315 197.212694,208.34272 Z" id="speech-bubble" stroke="#000000" fill="#FFFFFF"></path>
                            <g id="leave-the-gun" transform="translate(91.923508, 40.408938)">
                                <g id="gun-copy-2" transform="translate(7.704368, 24.694351)">
                                    <g id="handle" transform="translate(0.000000, 15.096917)">
                                        <path d="M12.3667874,3.01291182 C13.8471342,1.52263067 17.2929042,0.314519102 20.0552207,0.314519102 L50.5205905,0.314519102 C54.9381975,0.314519102 58.0586685,3.87553794 57.4937473,8.24207629 L51.4741208,54.7705669 C50.1986852,64.6290018 41.1140315,72.6208424 31.165897,72.6208424 L26.997183,72.6208424 C14.8437208,72.6208424 4.64801901,62.7862299 4.44035027,50.6374245 C4.44035027,50.6374245 2.83009728,26.5895516 6.98380362,14.7823978 C11.13751,2.97524396 10.0815448,6.64594692 10.4773237,6.00238865 C16.0866377,-3.11866531 12.3667874,3.01291182 12.3667874,3.01291182 Z" id="Rectangle-5" fill="#4D4640"></path>
                                        <g id="Rectangle">
                                            <use fill="#2C292B" fill-rule="evenodd" xlink:href="#path-19"></use>
                                            <path stroke="#000000" stroke-width="2" d="M25.6373007,8.43557306 L24.8800527,8.43557306 L24.6747531,9.16446036 L10.3684643,59.9569308 C8.98794934,64.8582555 12.0726605,68.9361261 17.1546645,68.9361261 L35.3659453,68.9361261 C38.5932171,68.9361261 41.7027184,66.4142609 42.3655131,63.2543036 L53.6108272,9.64085408 L53.8636325,8.43557306 L52.6321241,8.43557306 L25.6373007,8.43557306 Z"></path>
                                        </g>
                                        <path d="M1.78634242,28.2316415 C2.5037169,23.1378452 0.463520217,2.9971501 8.51520833,10.4451105 C16.5668965,17.8930708 15.1027852,13.673499 15.1027852,13.673499 C19.5063601,12.7136562 17.3297694,16.303551 16.4682405,21.3669589 L7.60561569,64.9215467 C7.60561569,64.9215467 3.32384872,56.2523859 3.12917099,53.8477794 C2.93449326,51.443173 1.78634242,28.2316415 1.78634242,28.2316415 Z" id="Rectangle-6" fill="#FFFFFF" transform="translate(9.778784, 36.866404) rotate(3.000000) translate(-9.778784, -36.866404) "></path>
                                    </g>
                                    <g id="top" transform="translate(10.840207, 0.000000)">
                                        <g id="Oval">
                                            <use fill="black" fill-opacity="1" filter="url(#filter-22)" xlink:href="#path-21"></use>
                                            <use fill="url(#radialGradient-20)" fill-rule="evenodd" xlink:href="#path-21"></use>
                                        </g>
                                        <path d="M102.94064,25.9979291 L102.94064,15.0969169 L45.5756758,15.0969169 L40.6675261,47.8905362 C40.6675261,47.8905362 37.6253687,45.9756544 53.6327057,45.9209823 L56.9154855,28.8115831 L87.867212,28.8115831 C87.867212,28.8115831 89.9572783,25.9979291 91.8261537,25.9979291 L102.94064,25.9979291 Z" id="Combined-Shape" fill="#4D4640"></path>
                                        <polygon id="Path-2" stroke="#4D4640" fill="#4D4640" points="10.5174636 5.34682474 13.3221206 0.629038204 49.4320791 0.314519102 54.3402289 3.77422923 102.720562 3.45971012 107.979293 0 117.094429 2.20163372 117.445011 5.03230563"></polygon>
                                        <ellipse id="Oval-2" stroke="#4D4640" stroke-width="6" cx="4.9081497" cy="5.66134384" rx="4.9081497" ry="5.03230563"></ellipse>
                                        <path d="M99.5653225,15.7259551 L119.197921,15.7259551 L119.197921,24.5830275 L109.381622,24.5830275 L99.5653225,24.5830275 L99.5653225,15.7259551 Z" id="Rectangle-10" fill="url(#linearGradient-23)"></path>
                                        <g id="trigger" transform="translate(48.380333, 27.048643)">
                                            <path d="M3.96901679,13.1509575 C6.33172693,9.72300302 11.0407996,5.27038065 14.3100167,3.37679115 C14.9087026,3.28443782 16.4220429,3.05565425 18.5557632,2.7345658 C18.5679072,2.73273836 18.5679072,2.73273836 18.5800512,2.73091093 C19.5814283,2.58022455 20.6543728,2.4189956 21.727323,2.25791702 C22.3353369,2.16665045 22.3353369,2.16665045 22.7645145,2.1022572 C23.0863873,2.05397329 23.0863873,2.05397329 23.1578779,2.04325323 C26.5131334,1.53932575 28.534997,3.62641479 27.9168676,6.95368419 L26.6290673,13.8856599 C25.9671528,17.4486152 22.4642915,20.044205 18.861417,19.6451605 L6.36016594,18.260556 C3.11354545,17.9009692 2.15456034,15.8473948 3.96901679,13.1509575 L3.96901679,13.1509575 Z" id="Rectangle-4" stroke="#4D4640" stroke-width="3"></path>
                                            <path d="M16.9281082,19.7561752 C15.7660622,20.0327622 14.5323864,20.1815705 13.2540831,20.1815705 C6.32129746,20.1815705 0.701164243,15.8045871 0.701164243,10.4053044 C0.701164243,5.00602166 6.32129746,0.629038204 13.2540831,0.629038204 C14.5323864,0.629038204 15.7660622,0.777846498 16.9281082,1.05443353 C11.7878813,2.27789639 8.04921432,6.00156961 8.04921432,10.4053044 C8.04921432,14.8090391 11.7878813,18.5327123 16.9281082,19.7561752 L16.9281082,19.7561752 Z" id="Combined-Shape" fill="#4D4844"></path>
                                            <path d="M4.31906519,18.556627 C4.31906519,18.556627 1.21779738,9.64795457 4.31906519,7.38490852 C5.3916021,6.60226072 7.94078898,3.23283193 11.1800304,2.30118148 C14.4192717,1.36953103 28.0465697,2.30118148 28.0465697,2.30118148" id="Line" stroke="#1F1A1A" stroke-width="3" stroke-linecap="square"></path>
                                        </g>
                                        <polygon id="Rectangle-3" fill="#4D4640" transform="translate(62.228327, 10.536390) scale(1, -1) translate(-62.228327, -10.536390) " points="5.95989607 5.03230563 118.496757 5.03230563 118.496757 16.0404742 10.8680458 16.0404742"></polygon>
                                        <rect id="Rectangle-9" fill="#514B4B" x="117.445011" y="5.03230563" width="4.9081497" height="11.0081686"></rect>
                                        <path d="M12.2703743,4.71778653 L117.445011,4.71778653" id="Line" stroke="#393535" stroke-linecap="square"></path>
                                        <path d="M6.66106031,16.0404742 L118.847339,16.0404742" id="Line" stroke="#393434" stroke-linecap="square"></path>
                                    </g>
                                </g>
                                <g id="ex" stroke="#D0011B" stroke-width="4" stroke-linecap="square">
                                    <path d="M1.43490354,1.43114988 L142.05545,113.060841" id="Line"></path>
                                    <path d="M1.43490354,1.43114988 L142.05545,113.060841" id="Line-Copy-2" transform="translate(71.745177, 57.245995) scale(-1, 1) translate(-71.745177, -57.245995) "></path>
                                </g>
                            </g>
                            <g id="take-cannoli" transform="translate(278.012561, 40.408938)">
                                <g id="cannoli-copy" transform="translate(24.662405, 20.204469)">
                                    <g id="pastry" transform="translate(0.000000, 0.000000)">
                                        <g id="Oval-4">
                                            <use fill="black" fill-opacity="1" filter="url(#filter-26)" xlink:href="#path-25"></use>
                                            <use stroke="#B68146" stroke-width="1" fill="url(#linearGradient-24)" fill-rule="evenodd" xlink:href="#path-25"></use>
                                        </g>
                                        <g id="Oval-3">
                                            <use fill="black" fill-opacity="1" filter="url(#filter-29)" xlink:href="#path-28"></use>
                                            <use stroke-opacity="0.980270607" stroke="#AA7640" stroke-width="2" fill="url(#linearGradient-27)" fill-rule="evenodd" xlink:href="#path-28"></use>
                                        </g>
                                        <path d="M121.861293,45.3272437 C121.861293,45.3272437 131.670721,58.3345638 130.961325,63.4581412 C130.723939,65.1726455 135.103355,75.871573 133.335246,80.8007388 C132.744681,82.4471262 133.077099,87.1314526 130.961325,89.4720376 C128.845551,91.8126226 119.091718,96.5667366 119.091718,96.5667366" id="Line" stroke="#A7723B" stroke-width="3" stroke-linecap="square"></path>
                                    </g>
                                    <g id="cream" transform="translate(11.078299, 1.576600)">
                                        <path d="M0,12.2186483 C0,9.06544874 8.30872454,5.91224918 8.30872454,5.91224918 L16.2217955,4.72979934 L25.3218272,0.394149945 L38.7740478,1.97074973 L39.1697014,4.72979934 L27.3000949,3.15319956 L20.178331,5.51809923 C20.178331,5.51809923 13.5083469,4.33846105 8.30872454,6.44467956 C3.10910222,8.55089807 1.11642771e-16,13.7451506 0,12.2186483 Z" id="back-cream" fill="#DFD1AD"></path>
                                        <g id="front-cream" transform="translate(68.843718, 29.955396)">
                                            <path d="M34.4349889,66.2744729 C39.9729555,64.539213 48.5742811,60.5201269 51.3881353,55.1640623 C52.9943143,52.1067616 52.2632331,49.8513085 51.3881353,43.2380704 C50.5130374,36.6248324 49.836115,32.1328892 48.5936135,27.9677161 C47.368398,23.8604898 45.8691091,21.5234203 43.4501174,17.7198175 C41.6244056,14.8490833 43.2828477,16.5231059 41.1479691,14.172468 C39.0130906,11.8218302 25.5780223,2.81947482 22.4080345,1.16551982 C12.8643485,-0.805229901 11.2684844,0.0916492726 7.84129792,1.16551982 C1.17122583,3.2555123 3.57553455,6.76753868 1.65073053,14.172468 C-0.27407349,21.5773974 -0.810152179,34.9885812 1.65073053,43.2380704 C5.30057796,55.4732643 12.8674936,63.966253 22.4080345,66.2744729 C31.9485755,68.5826928 30.8655489,67.392917 34.4349889,66.2744729 Z" id="Oval-5" fill-opacity="0" fill="#D9CEA5"></path>
                                            <g id="Oval-6">
                                                <use fill="black" fill-opacity="1" filter="url(#filter-32)" xlink:href="#path-31"></use>
                                                <use fill="url(#radialGradient-30)" fill-rule="evenodd" xlink:href="#path-31"></use>
                                                <use fill="black" fill-opacity="1" filter="url(#filter-33)" xlink:href="#path-31"></use>
                                            </g>
                                        </g>
                                    </g>
                                </g>
                                <polyline id="Line" stroke="#7ED321" stroke-width="4" stroke-linecap="square" points="0 40.4089379 50.4458275 89.7976397 140.127299 0"></polyline>
                            </g>
                        </g>
                    </g>
                </g>
            </g>
        </g>
    </g>
</svg>